<svg width="140" height="140" xmlns="http://www.w3.org/2000/svg">
 <!-- Created with Method Draw - http://github.com/duopixel/Method-Draw/ -->

 <g>
  <title>background</title>
  <rect fill="none" id="canvas_background" height="142" width="162" y="-1" x="-1"/>
  <g display="none" overflow="visible" y="0" x="0" height="100%" width="100%" id="canvasGrid">
   <rect fill="url(#gridpattern)" stroke-width="0" y="0" x="0" height="100%" width="100%"/>
  </g>
 </g>
 <g>
  <title>Layer 1</title>
  <g id="svg_119">
   <g stroke="null" id="svg_10">
    <g stroke="null" transform="matrix(0.07409734783470023,0,0,0.06800478226512656,-2.7476009718324192,-1.4111648738435179e-7) " id="svg_5">
     <path fill="#f0f0f0" stroke="null" id="svg_6" d="m797.056582,375.311898c-6.009,0 -10.897,4.889 -10.897,10.897c0,6.01 4.889,10.898 10.897,10.898c6.009,0 10.898,-4.889 10.898,-10.898c0,-6.009 -4.889,-10.897 -10.898,-10.897z"/>
     <path fill="#f0f0f0" stroke="null" id="svg_7" d="m800.083582,756.549898c-6.017,-3.682 -12.018,-6.061 -16.259,-7.47l0,-19.033c0,-4.143 -3.358,-7.5 -7.5,-7.5c-4.143,0 -7.5,3.357 -7.5,7.5l0,24.675c0,3.516 2.459,6.563 5.892,7.325c0.09,0.021 9.12,2.065 17.852,7.491c7.845,4.874 12.822,10.781 14.872,17.625l-47.387,0c-6.519,0 -12.36,-4.13 -14.535,-10.275l-43.715,-123.576c-1.376,-3.893 -5.641,-5.939 -9.538,-4.582c-3.897,1.358 -5.966,5.611 -4.627,9.517c3.155,9.197 4.755,19.469 4.755,30.528c0,21.898 -10.805,37.278 -33.031,47.02c-19.151,8.394 -41.314,9.745 -49.954,9.936c-4.108,0.091 -7.379,3.472 -7.334,7.581c0.046,4.109 3.391,7.417 7.5,7.417l59.013,0c11.738,0 20.653,3.137 26.496,9.323c5.027,5.323 7.058,12.099 7.867,17.111l-160.508,0c-12.34,0 -23.51,-4.913 -33.2,-14.602c-1.274,-1.274 -2.966,-2.048 -4.765,-2.177c-48.806,-3.512 -108.036,-48.143 -121.674,-123.941c-0.734,-4.076 -4.631,-6.783 -8.71,-6.054c-4.077,0.734 -6.787,4.634 -6.054,8.71c6.722,37.356 24.245,70.538 50.676,95.958c24.021,23.103 53.017,37.255 81.939,40.057c12.033,11.165 26.425,17.049 41.787,17.049l168.5,0c3.948,0 7.221,-3.062 7.483,-7.001c0.057,-0.843 1.221,-20.811 -12.306,-35.27c-7.995,-8.546 -19.16,-13.261 -33.232,-14.046c16.71,-9.18 27.561,-22.263 32.092,-38.58l26.398,74.624c4.291,12.126 15.814,20.272 28.676,20.272l55.961,0c4.143,0 7.5,-3.358 7.5,-7.5c0.001,-15.555 -8.101,-28.734 -23.43,-38.112z"/>
     <path fill="#f0f0f0" stroke="null" id="svg_8" d="m379.730582,617.612898c-2.175,-58.672 23.311,-92.475 45.073,-110.5c27.722,-22.962 57.793,-28.8 59.054,-29.036c4.711,-0.883 9.236,2.225 10.117,6.911c0.88,4.693 -2.222,9.229 -6.988,10.123c-1.132,0.225 -28.003,5.726 -52.122,26.165c-31.651,26.828 -43.73,66.063 -35.903,116.615c6.67,43.078 30.214,73.575 69.977,90.644c4.273,1.834 9.371,4.711 13.572,1.16c2.079,-1.758 3.043,-4.504 2.518,-7.175c-14.375,-73.086 26.439,-126.234 70.443,-144.689c17.86,-7.489 33.885,-16.124 47.628,-25.664c3.403,-2.361 4.247,-7.035 1.885,-10.438c-2.362,-3.402 -7.035,-4.247 -10.438,-1.885c-12.884,8.942 -27.982,17.068 -44.876,24.154c-64.987,27.252 -87.115,92.937 -81.414,147.692c-30.712,-15.35 -49.024,-40.917 -54.471,-76.096c-6.976,-45.043 3.38,-79.655 30.777,-102.877c20.969,-17.77 45.12,-22.85 45.265,-22.88c12.821,-2.406 21.295,-14.796 18.89,-27.618c-2.403,-12.808 -14.791,-21.278 -27.615,-18.89c-1.423,0.267 -35.188,6.819 -65.866,32.229c-24.362,20.181 -52.897,57.832 -50.496,122.61c0.154,4.14 3.672,7.341 7.773,7.218c4.139,-0.153 7.37,-3.634 7.217,-7.773z"/>
     <path fill="#f0f0f0" stroke="null" id="svg_9" d="m856.889582,404.733898c-0.043,-0.517 -0.042,-1.041 -0.114,-1.555c-0.299,-2.318 -1.254,-4.924 -3.013,-8.226c-0.047,-0.088 -0.102,-0.17 -0.152,-0.255c-3.89,-7.255 -29.056,-39.939 -30.551,-42.073c-6.271,-8.958 -26.833,-13.104 -40.164,-14.893l0,-39.364c0,-4.601 -4.298,-8.195 -8.829,-7.382c-2.014,0.363 -48.37,9.195 -63.688,53.385c-9.488,4.473 -34.559,19.569 -43.561,57.221c-1.422,5.945 -2.585,12.474 -3.815,19.387c-5.325,29.91 -11.953,67.134 -46.182,100.587c-2.962,2.895 -3.017,7.644 -0.121,10.605c2.892,2.961 7.642,3.017 10.605,0.121c13.712,-13.401 23.399,-27.427 30.453,-41.312c44.197,30.503 88.549,36.539 116.658,36.539c2.104,0 4.113,-0.035 6.029,-0.095c1.753,3.338 3.428,6.245 4.741,8.519l0.864,1.502c1.392,2.436 33.53,60.355 -15.537,120.531c-1.092,1.338 -1.688,3.013 -1.688,4.739l0,37.332c0,4.143 3.357,7.5 7.5,7.5c4.142,0 7.5,-3.357 7.5,-7.5l0,-34.697c20.395,-25.87 30.064,-54.357 28.745,-84.707c-1.21,-27.836 -11.455,-47.067 -13.497,-50.64l-0.897,-1.56c-4.348,-7.532 -15.246,-26.418 -12.8,-38.872c0.013,-0.054 0.025,-0.108 0.037,-0.162c0.241,-1.165 0.591,-2.277 1.086,-3.312c2.427,-5.078 8.5,-8.413 18.05,-9.911c21.836,-3.425 37.755,-15.963 46.035,-36.26c3.327,-8.155 6.901,-27.962 6.306,-35.192zm-192.868,72.335c2.56,-6.461 4.643,-12.835 6.373,-19.038c14.639,13.111 46.045,33.996 99.705,36.995c0.244,5.882 1.712,11.865 3.707,17.492c-26.535,-0.082 -68.349,-6.001 -109.785,-35.449zm138.202,-15.701c-14.729,2.311 -24.572,8.454 -29.259,18.262c-0.08,0.167 -0.144,0.338 -0.22,0.506c-36.411,-1.748 -61.32,-12.434 -76.02,-21.332c-11.783,-7.133 -18.991,-14.229 -22.234,-17.814c1.267,-6.094 2.307,-11.922 3.279,-17.382c1.191,-6.689 2.316,-13.009 3.636,-18.527c8.972,-37.52 36.37,-47.654 37.493,-48.054c2.292,-0.786 4.064,-2.631 4.755,-4.954c8.216,-27.582 31.381,-39.325 44.242,-43.837l0,36.172c0,3.853 2.922,7.08 6.757,7.463c16.342,1.632 33.564,6.1 36.118,9.356c1.723,2.461 4.564,6.094 8.163,10.694c4.548,5.814 13.315,17.024 18.625,25.09c-1.473,2.252 -2.318,4.918 -2.318,7.723c0,4.798 2.34,9.012 5.964,11.565c-2.224,18.309 -10.842,40.656 -38.981,45.069z"/>
    </g>
   </g>
   <g id="svg_39">
    <g transform="matrix(0.06781683510376357,0,0,0.06781683510376357,0,0) " id="svg_15">
     <g id="svg_16">
      <path fill="#f0f0f0" id="svg_17" d="m1889.801925,394.420117c-14.257,-14.257 -33.212,-22.108 -53.377,-22.108c-3.684,0 -7.331,0.262 -10.93,0.784c3.442,-23.269 -4.152,-47.134 -21.346,-64.328c-14.259,-14.259 -33.217,-22.112 -53.383,-22.112s-39.124,7.853 -53.383,22.111c-13.366,13.365 -21.19,31.118 -22.034,49.988c-0.7,15.663 3.442,30.988 11.77,44.013l-166.995,166.997c-12.901,-9.526 -28.475,-14.683 -44.756,-14.683c-20.164,0 -39.121,7.852 -53.378,22.11c-14.258,14.259 -22.112,33.217 -22.112,53.383s7.854,39.124 22.112,53.383c14.257,14.257 33.212,22.108 53.376,22.108c3.684,0 7.331,-0.262 10.93,-0.784c-3.443,23.269 4.152,47.134 21.346,64.328c14.259,14.259 33.216,22.111 53.383,22.111c20.165,0 39.124,-7.852 53.383,-22.111c14.067,-14.067 21.918,-32.768 22.107,-52.657c0.157,-16.551 -5.001,-32.378 -14.679,-45.478l165.934,-165.934c13.596,11.494 30.642,17.756 48.649,17.756c20.165,0 39.124,-7.853 53.382,-22.111c29.435,-29.437 29.435,-77.331 0.001,-106.766zm-14.143,92.622c-10.482,10.481 -24.417,16.253 -39.24,16.253c-14.823,0 -28.759,-5.772 -39.241,-16.253c-0.695,-0.696 -1.397,-1.437 -2.084,-2.204c-1.833,-2.044 -4.427,-3.244 -7.172,-3.318c-2.756,-0.073 -5.4,0.983 -7.343,2.925l-179.37,179.369c-3.85,3.849 -3.913,10.071 -0.142,13.998c20.758,21.617 20.397,56.454 -0.803,77.655c-10.482,10.481 -24.418,16.253 -39.24,16.253c-14.823,0 -28.758,-5.772 -39.239,-16.253c-15.959,-15.958 -20.669,-39.737 -12.002,-60.577c1.555,-3.739 0.701,-8.048 -2.162,-10.912c-1.913,-1.914 -4.471,-2.929 -7.073,-2.929c-1.293,0 -2.597,0.251 -3.838,0.767c-6.78,2.819 -13.961,4.249 -21.343,4.249c-14.821,0 -28.754,-5.771 -39.233,-16.25c-10.483,-10.483 -16.255,-24.418 -16.255,-39.241c0,-14.822 5.772,-28.758 16.254,-39.24c10.48,-10.481 24.414,-16.252 39.235,-16.252c14.4,0 28.044,5.486 38.419,15.449c3.926,3.769 10.148,3.708 13.998,-0.143l179.513,-179.512c3.646,-3.646 3.922,-9.466 0.638,-13.441c-18.295,-22.144 -16.752,-54.184 3.59,-74.526c10.482,-10.482 24.418,-16.254 39.24,-16.254c14.823,0 28.758,5.772 39.24,16.254c15.958,15.959 20.668,39.737 12.001,60.578c-1.555,3.739 -0.701,8.048 2.163,10.912c2.863,2.864 7.172,3.717 10.912,2.163c6.78,-2.82 13.962,-4.249 21.344,-4.249c14.821,0 28.754,5.771 39.234,16.25c21.635,21.637 21.635,56.843 -0.001,78.479z"/>
     </g>
    </g>
    <g transform="matrix(0.06781683510376357,0,0,0.06781683510376357,0,0) " id="svg_18">
     <g id="svg_19">
      <path fill="#f0f0f0" id="svg_20" d="m1619.157925,534.375117c-3.905,-3.905 -10.238,-3.905 -14.143,0l-46.639,46.638c-3.905,3.905 -3.905,10.237 0,14.143c1.953,1.953 4.511,2.929 7.071,2.929c2.559,0 5.119,-0.977 7.071,-2.929l46.639,-46.638c3.906,-3.905 3.906,-10.236 0.001,-14.143z"/>
     </g>
    </g>
    <g transform="matrix(0.06781683510376357,0,0,0.06781683510376357,0,0) " id="svg_21">
     <g id="svg_22">
      <path fill="#f0f0f0" id="svg_23" d="m1640.405925,513.127117c-3.905,-3.905 -10.238,-3.905 -14.143,0l-0.229,0.23c-3.905,3.905 -3.905,10.238 0,14.143c1.953,1.953 4.512,2.929 7.071,2.929c2.559,0 5.118,-0.977 7.071,-2.929l0.229,-0.23c3.906,-3.905 3.906,-10.238 0.001,-14.143z"/>
     </g>
    </g>
    <g transform="matrix(0.06781683510376357,0,0,0.06781683510376357,0,0) " id="svg_24"/>
    <g transform="matrix(0.06781683510376357,0,0,0.06781683510376357,0,0) " id="svg_25"/>
    <g transform="matrix(0.06781683510376357,0,0,0.06781683510376357,0,0) " id="svg_26"/>
    <g transform="matrix(0.06781683510376357,0,0,0.06781683510376357,0,0) " id="svg_27"/>
    <g transform="matrix(0.06781683510376357,0,0,0.06781683510376357,0,0) " id="svg_28"/>
    <g transform="matrix(0.06781683510376357,0,0,0.06781683510376357,0,0) " id="svg_29"/>
    <g transform="matrix(0.06781683510376357,0,0,0.06781683510376357,0,0) " id="svg_30"/>
    <g transform="matrix(0.06781683510376357,0,0,0.06781683510376357,0,0) " id="svg_31"/>
    <g transform="matrix(0.06781683510376357,0,0,0.06781683510376357,0,0) " id="svg_32"/>
    <g transform="matrix(0.06781683510376357,0,0,0.06781683510376357,0,0) " id="svg_33"/>
    <g transform="matrix(0.06781683510376357,0,0,0.06781683510376357,0,0) " id="svg_34"/>
    <g transform="matrix(0.06781683510376357,0,0,0.06781683510376357,0,0) " id="svg_35"/>
    <g transform="matrix(0.06781683510376357,0,0,0.06781683510376357,0,0) " id="svg_36"/>
    <g transform="matrix(0.06781683510376357,0,0,0.06781683510376357,0,0) " id="svg_37"/>
    <g transform="matrix(0.06781683510376357,0,0,0.06781683510376357,0,0) " id="svg_38"/>
   </g>
   <g id="svg_65">
    <g transform="matrix(0.09362045749698211,0,0,0.09362045749698211,0,0) " id="svg_44">
     <g id="svg_45">
      <circle fill="#f0f0f0" id="svg_46" r="11.999999" cy="971.751438" cx="1346.04409"/>
     </g>
    </g>
    <g transform="matrix(0.09362045749698211,0,0,0.09362045749698211,0,0) " id="svg_47">
     <g id="svg_48">
      <path fill="#f0f0f0" id="svg_49" d="m1433.78609,967.751438c-18.531,0 -34.438,1.304 -49.801,-14.059l-19.883,-19.882c-9.004,-9.002 -21.21,-14.059 -33.942,-14.059l-55.82,0l-0.336,0c-12.754,0 -24.984,5.054 -34.019,14.058l-0.293,0.292l-37.453,37.452c-7.809,7.808 -12.195,18.399 -12.195,29.442l0,12.57c0,22.778 18.078,46.274 40.61,49.634c2.5,0.372 4.965,0.552 7.39,0.552l0,3.196c-39.43,22.724 -120.332,68.548 -136.351,84.447c-13.481,13.486 -23.649,34.807 -23.649,56.357c0,9.619 1.258,19.402 6.851,32.121l-46.851,-0.121c-13.254,0 -24,10.746 -24,24s10.746,24 24,24l199.762,0c11.886,0 20.125,-12.764 14.379,-23.168c-5.117,-9.262 -13.203,-16.65 -22.973,-20.89c5.496,-10.916 8.687,-19.95 22.473,-19.95l18.359,0l0,48.008c0,8.836 7.164,16 16,16l59.527,0c12.27,0 20.199,-13.382 14.004,-23.977c-7.375,-12.619 -20.398,-21.532 -35.606,-23.426l3.558,-28.466c19.234,-11.806 33.406,-31.422 37.305,-54.13c5.453,-31.775 -8.074,-60.472 -30.789,-77.638l0,-32.364l48,0c17.602,0 39.41,-12.349 48.465,-27.442c3.817,-6.358 19.34,-29.415 19.301,-36.614c-0.043,-8.312 -6.695,-15.943 -16.023,-15.943zm-195.812,79.829c-19.562,0 -31.93,-16.571 -31.93,-33.608l0,-12.973c0,-6.651 2.539,-13.164 7.508,-18.131l37.453,-37.451c5.027,-5.026 11.774,-8.371 19.039,-9.262l0,79.596c0,17.115 -13.782,31.829 -32.07,31.829zm-199.93,224.171c-4.41,0 -8,-3.589 -8,-8s3.59,-8 7.957,-8c57.942,0.15 43.574,0.112 56.554,0.146c5.926,7.782 6.89,9.098 15.965,15.854l-72.476,0zm378.746,-259.674c-6.493,10.82 -22.13,19.674 -34.746,19.674l-40.809,0c-10.414,0 -19.211,-6.708 -22.527,-16l-16.664,0c2.047,10.047 7.953,18.628 16,24.406l0,47.921c23.047,17.422 36.117,37.266 31.019,66.968c-4.05,23.585 -18.317,36.087 -36.457,47.222c-3.844,30.751 -5.008,40.05 -6.5,51.981c16.137,2.009 30.672,2.04 39.465,17.503c-33.457,0 -26.145,0 -59.527,0c0,-38.358 0,-41.45 0,-80l-16,0l0,15.992c-4.238,0 -7.61,0 -18.359,0c-4.938,0 -9.543,1.31 -13.91,3.155c0.785,-21.742 -7.082,-43.63 -23.168,-59.718l-11.313,11.313c23.722,23.734 22.27,58.453 8.75,79.633l-4.797,9.483c12.446,5.397 24.375,8.767 30.558,20.142l-79.809,0c-35.45,-0.032 -63.446,-28.586 -63.867,-63.138c-0.34,-19.142 8.344,-38.943 25.922,-52.037c17.61,-13.117 114.966,-69.42 133.993,-80.384c0,-4.351 0.008,-11.243 -0.012,-15.378c18.606,-6.61 32.012,-24.191 32.012,-45.064l0,-80l44.121,0c8.488,0 16.625,3.371 22.625,9.372l19.879,19.881c11.394,11.394 26.375,17.748 42.367,18.464c1.691,5.817 5.625,10.616 10.844,13.459l-9.09,15.15z"/>
     </g>
    </g>
    <g transform="matrix(0.09362045749698211,0,0,0.09362045749698211,0,0) " id="svg_50"/>
    <g transform="matrix(0.09362045749698211,0,0,0.09362045749698211,0,0) " id="svg_51"/>
    <g transform="matrix(0.09362045749698211,0,0,0.09362045749698211,0,0) " id="svg_52"/>
    <g transform="matrix(0.09362045749698211,0,0,0.09362045749698211,0,0) " id="svg_53"/>
    <g transform="matrix(0.09362045749698211,0,0,0.09362045749698211,0,0) " id="svg_54"/>
    <g transform="matrix(0.09362045749698211,0,0,0.09362045749698211,0,0) " id="svg_55"/>
    <g transform="matrix(0.09362045749698211,0,0,0.09362045749698211,0,0) " id="svg_56"/>
    <g transform="matrix(0.09362045749698211,0,0,0.09362045749698211,0,0) " id="svg_57"/>
    <g transform="matrix(0.09362045749698211,0,0,0.09362045749698211,0,0) " id="svg_58"/>
    <g transform="matrix(0.09362045749698211,0,0,0.09362045749698211,0,0) " id="svg_59"/>
    <g transform="matrix(0.09362045749698211,0,0,0.09362045749698211,0,0) " id="svg_60"/>
    <g transform="matrix(0.09362045749698211,0,0,0.09362045749698211,0,0) " id="svg_61"/>
    <g transform="matrix(0.09362045749698211,0,0,0.09362045749698211,0,0) " id="svg_62"/>
    <g transform="matrix(0.09362045749698211,0,0,0.09362045749698211,0,0) " id="svg_63"/>
    <g transform="matrix(0.09362045749698211,0,0,0.09362045749698211,0,0) " id="svg_64"/>
   </g>
   <g id="svg_95">
    <g transform="matrix(0.06781709897873966,0,0,0.06781709897873966,0,0) " id="svg_70">
     <g id="svg_71">
      <g id="svg_72">
       <path fill="#f0f0f0" id="svg_73" d="m717.738504,1559.078408c-5.52,0 -10,4.48 -10,10s4.48,10 10,10c5.52,0 10,-4.48 10,-10s-4.48,-10 -10,-10z"/>
       <path fill="#f0f0f0" id="svg_74" d="m806.959504,1612.920408c-9.374,-9.369 -32.107,-34.727 -50.041,-75.851c-13.336,-31.998 -44.347,-52.669 -79.028,-52.669c-34.674,0 -65.68,20.674 -79.019,52.679c-22.5,51.606 -53.238,78.916 -53.533,79.174c-0.036,0.031 -0.071,0.063 -0.106,0.094c-18.13,16.233 -28.528,39.487 -28.528,63.799c0,29.721 14.153,55.568 38.705,71.945c22.876,15.262 51.229,19.838 77.784,12.557c13.308,-3.646 28.711,-5.574 44.547,-5.574c16.103,0 31.734,1.992 45.203,5.76c25.775,7.215 54.066,3.259 77.421,-12.172c24.834,-16.409 39.232,-42.5 39.232,-72.516c0,-26.399 -11.886,-50.864 -32.637,-67.226zm-17.623,123.055c-18.023,11.908 -40.258,15.406 -61.005,9.599c-15.201,-4.253 -32.695,-6.5 -50.594,-6.5c-17.596,0 -34.827,2.174 -49.834,6.286c-20.966,5.749 -43.344,2.138 -61.398,-9.906c-18.85,-12.575 -29.804,-32.234 -29.804,-55.309c0,-18.614 7.956,-36.421 21.829,-48.863c2.134,-1.871 34.586,-30.925 58.706,-86.29c0.022,-0.052 0.045,-0.104 0.066,-0.156c10.208,-24.564 33.988,-40.436 60.584,-40.436c26.606,-0.001 50.391,15.868 60.596,40.426c0.021,0.052 0.044,0.104 0.066,0.156c19.586,44.95 44.804,72.7 54.736,82.546c0.286,0.282 0.588,0.548 0.904,0.794c16.146,12.545 25.405,31.434 25.405,51.823c0.002,23.267 -11.13,43.193 -30.257,55.83z"/>
       <path fill="#f0f0f0" id="svg_75" d="m744.979504,1598.888408c-3.014,-4.627 -9.208,-5.938 -13.837,-2.923c-4.629,3.016 -5.937,9.211 -2.923,13.838c15.217,23.363 29.645,38.923 36.893,46.119c3.918,3.89 10.25,3.869 14.143,-0.051c3.891,-3.919 3.868,-10.251 -0.051,-14.143c-6.684,-6.636 -20.018,-21.025 -34.225,-42.84z"/>
       <path fill="#f0f0f0" id="svg_76" d="m645.329504,1435.647408c9.609,-16.795 13.615,-39.102 10.991,-61.195c-5.076,-43.013 -34.741,-79.046 -67.884,-75.066c-14.966,1.771 -28.272,11.595 -37.473,27.662c-9.603,16.782 -13.609,39.089 -10.991,61.198c8.291,70.245 73.684,102.728 105.357,47.401zm-77.008,-98.664c5.474,-9.563 14.013,-17.879 25.02,-17.879c19.681,0 39.427,26.419 43.119,57.699c2.13,17.933 -0.964,35.76 -8.488,48.91c-23.047,40.264 -62.693,6.318 -68.139,-39.815c-2.125,-17.947 0.97,-35.776 8.488,-48.915z"/>
       <path fill="#f0f0f0" id="svg_77" d="m549.541504,1543.202408c2.895,-17.823 -0.623,-37.534 -9.905,-55.503c-9.286,-17.973 -23.328,-32.25 -39.541,-40.202c-17.219,-8.446 -34.853,-8.882 -49.653,-1.229c-14.8,7.647 -24.642,22.28 -27.716,41.207c-2.895,17.824 0.623,37.534 9.905,55.505c9.287,17.968 23.329,32.242 39.542,40.194c16.09,7.892 33.916,9.367 49.65,1.238c14.802,-7.647 24.646,-22.283 27.718,-41.21zm-36.897,23.441c-9.03,4.668 -20.274,4.161 -31.663,-1.425c-12.39,-6.077 -23.25,-17.237 -30.581,-31.42c-7.327,-14.185 -10.145,-29.496 -7.933,-43.117c2.033,-12.518 8.127,-21.979 17.158,-26.645c0.001,-0.001 0.002,-0.001 0.003,-0.002c9.986,-5.163 21.552,-3.539 31.66,1.419c12.389,6.077 23.249,17.238 30.58,31.426c7.327,14.185 10.145,29.498 7.933,43.118c-2.032,12.518 -8.126,21.98 -17.157,26.646z"/>
       <path fill="#f0f0f0" id="svg_78" d="m752.737504,1463.791408c30.315,0 57.988,-33.098 62.999,-75.353c5.325,-45.014 -17.355,-89.143 -53.38,-89.143c-30.32,0 -57.99,33.099 -62.989,75.353c-5.331,45.096 17.416,89.143 53.37,89.143zm-33.508,-86.794c3.702,-31.278 23.452,-57.703 43.129,-57.703c0.926,0 1.724,0.045 2.439,0.138c10.663,1.185 18.917,10.504 23.779,20.019c6.614,12.941 9.274,29.939 7.3,46.634c-3.843,32.404 -25.321,60.197 -45.577,57.568c-0.037,-0.004 -0.074,-0.009 -0.111,-0.014c-9.093,-1.07 -17.718,-8.36 -23.662,-20c-6.612,-12.942 -9.271,-29.942 -7.297,-46.642z"/>
       <path fill="#f0f0f0" id="svg_79" d="m932.752504,1487.515408c-6.324,-38.946 -41.53,-57.564 -77.369,-39.978c-33.529,16.448 -55.437,58.818 -49.446,95.706c6.399,39.407 41.956,57.344 77.368,39.972c33.539,-16.451 55.437,-58.816 49.447,-95.7zm-58.255,77.743c-11.388,5.585 -22.632,6.09 -31.663,1.425l0,0.001c-9.031,-4.667 -15.125,-14.131 -17.157,-26.647c-4.572,-28.156 12.838,-61.947 38.514,-74.546c23.53,-11.543 44.613,-0.675 48.82,25.229c4.564,28.104 -12.791,61.922 -38.514,74.538z"/>
      </g>
     </g>
    </g>
    <g transform="matrix(0.06781709897873966,0,0,0.06781709897873966,0,0) " id="svg_80"/>
    <g transform="matrix(0.06781709897873966,0,0,0.06781709897873966,0,0) " id="svg_81"/>
    <g transform="matrix(0.06781709897873966,0,0,0.06781709897873966,0,0) " id="svg_82"/>
    <g transform="matrix(0.06781709897873966,0,0,0.06781709897873966,0,0) " id="svg_83"/>
    <g transform="matrix(0.06781709897873966,0,0,0.06781709897873966,0,0) " id="svg_84"/>
    <g transform="matrix(0.06781709897873966,0,0,0.06781709897873966,0,0) " id="svg_85"/>
    <g transform="matrix(0.06781709897873966,0,0,0.06781709897873966,0,0) " id="svg_86"/>
    <g transform="matrix(0.06781709897873966,0,0,0.06781709897873966,0,0) " id="svg_87"/>
    <g transform="matrix(0.06781709897873966,0,0,0.06781709897873966,0,0) " id="svg_88"/>
    <g transform="matrix(0.06781709897873966,0,0,0.06781709897873966,0,0) " id="svg_89"/>
    <g transform="matrix(0.06781709897873966,0,0,0.06781709897873966,0,0) " id="svg_90"/>
    <g transform="matrix(0.06781709897873966,0,0,0.06781709897873966,0,0) " id="svg_91"/>
    <g transform="matrix(0.06781709897873966,0,0,0.06781709897873966,0,0) " id="svg_92"/>
    <g transform="matrix(0.06781709897873966,0,0,0.06781709897873966,0,0) " id="svg_93"/>
    <g transform="matrix(0.06781709897873966,0,0,0.06781709897873966,0,0) " id="svg_94"/>
   </g>
  </g>
 </g>
</svg>